<svg width="246" height="254" viewBox="0 0 246 254" fill="none" xmlns="http://www.w3.org/2000/svg">
<mask id="path-1-inside-1" fill="white">
<path d="M112.731 32.6511L113.444 33.2122L113.81 33.9243L114.523 34.2912L114.35 35.0033L114.523 35.7155V36.4276L114.89 37.1614L115.257 37.8735L115.062 38.5857L115.408 39.2978L115.257 40.0316L115.602 40.7437L116.141 41.4559H116.854L117.566 41.8227L118.278 42.3406L118.645 43.0528L118.839 43.7649L118.127 44.326L117.566 45.0382L116.854 45.7503L116.141 46.4841L115.257 47.1962L114.523 47.5631L113.983 48.2752L113.271 48.7932L112.731 49.5053V50.239L112.386 50.9512L111.825 51.6633L111.112 52.3755L110.573 53.1092H111.307L113.098 52.5697L113.81 52.3755L114.177 51.6633V50.9512L114.89 50.5843L115.408 51.3181L115.969 52.0302L116.141 51.3181L115.602 50.5843L115.775 49.8722L116.336 49.16L117.048 48.7932H117.76H118.472L119.206 48.9874H119.919L120.631 48.7932L121.343 48.6205L122.077 48.2752H122.789L123.501 48.4479L124.581 49.16L124.019 49.8722L123.868 50.5843L123.674 51.3181L123.307 52.0302L122.789 52.7423L122.077 53.4545L121.343 53.6487L120.631 53.4545L119.919 54.0156L119.206 54.3609L118.472 54.1882L117.76 54.0156L117.048 54.1882L116.336 54.3609H115.602H114.89L114.177 54.0156L113.271 53.8214L112.537 54.1882V54.9004L113.444 54.3609L114.177 54.7277L114.89 54.9004L115.602 55.0946H116.336L117.048 54.7277L117.76 54.9004H118.472L119.206 55.0946H119.919L120.631 54.7277L120.804 55.4399L121.516 54.9004L121.71 54.1882L122.422 54.0156L123.135 53.4545H123.868L124.019 52.7423L124.581 52.0302L124.948 51.3181L125.466 50.5843L126.178 50.239L126.89 50.5843L127.624 50.7785L128.336 51.3181L129.048 51.4907L129.761 51.6633L130.495 52.2244L131.207 52.5697L132.113 52.9366L132.998 53.3034L133.711 53.1092L134.444 53.4545L135.157 54.0156L135.351 54.7277L136.063 54.3609L136.775 54.5335L137.488 55.0946L138.027 55.8068V56.5189L137.855 57.231L138.027 57.9648L137.855 58.8496V59.5617L137.315 60.2739L138.027 60.4681L138.567 59.7559L138.739 59.0438L138.934 58.3101L139.646 58.1158L140.186 58.8496L141.092 58.6769L141.437 57.9648L141.804 57.231L142.517 57.5979L143.229 57.9648L143.963 58.4827L144.675 58.8496L145.387 59.0438L146.1 59.7559L146.833 59.9286L147.546 59.3891L148.258 59.7559L148.97 60.1012L149.704 60.6407L150.416 60.2739L151.128 60.4681L151.668 61.1802L152.38 60.835L153.093 60.4681H153.805L154.711 60.986L155.445 61.5471H156.157L156.87 62.065L157.582 62.6261L158.122 63.3383L158.661 64.0504L159.395 64.4173L160.107 64.7626L160.453 65.4963L160.992 66.2085L161.338 66.9206L162.071 67.6328L162.784 67.9996L163.496 68.3665L164.23 68.8844L164.942 69.2513L165.654 69.9634L165.849 70.6756L166.928 70.5029L167.813 70.8698L168.525 71.0424L169.237 71.2367L169.604 71.9488L169.971 72.661L169.798 73.3731V74.1068L170.144 74.819L170.511 75.5311V76.2433L170.683 76.977V77.6892V78.4013L170.511 79.1135L170.316 79.8472L170.511 80.5593V81.2715L170.144 81.9836L169.798 82.7174V83.4295L169.604 84.1417L169.431 84.8538L169.086 85.5876L168.525 86.2781L168.007 86.9903L167.273 87.1845H166.561L166.928 87.8966L166.561 88.6088L166.021 89.3425L165.482 90.0547L164.769 90.5726L164.057 91.1337H163.323L162.784 91.8458L162.071 92.3638L161.704 93.0975L161.338 93.8096L160.992 94.5434L160.625 95.2555L159.395 96.3345L158.834 97.0683L158.122 97.4136L157.237 97.2193L156.524 96.874L156.33 97.5862V98.2983L156.157 99.0105L155.596 99.7442L155.078 100.456L154.884 101.169L155.078 101.881L155.791 101.535V102.248V102.96L155.078 103.521L154.711 104.233L155.078 104.945V105.657V106.391L155.251 107.103V107.815L155.078 108.527V109.261L154.711 109.973L154.539 110.685L154.172 111.398L153.999 112.131L153.46 112.843L153.287 113.556L153.093 114.268L152.92 115.001V115.714L152.38 116.426L151.841 117.138L151.495 117.872L151.301 118.584V119.296L151.128 120.008V120.742L150.934 121.454L150.589 122.166L149.855 122.533L149.143 123.763L148.431 124.324L148.258 125.036V125.748L147.546 125.921L146.833 126.633L146.1 126.827V127.54L145.56 128.273L145.042 128.986V129.698V130.41V131.144L144.308 131.856L143.596 132.223L142.884 132.374L142.171 132.935V133.647L141.437 134.014L140.725 133.819H140.013H139.301H138.567L137.855 133.647L137.142 133.819L136.43 134.014L135.696 133.453L134.984 133.647L134.272 134.014H133.559L132.826 134.532L132.113 135.093L131.401 135.244L130.689 135.805L130.322 136.517H129.61H128.53L127.818 136.884L127.084 137.229H126.372L125.66 137.402L124.948 137.769L124.214 138.308L123.674 139.02L122.962 139.56L122.228 140.099L121.71 140.812L121.343 141.545L120.631 141.891L119.919 141.696L119.357 142.43V143.142L119.206 143.854L119.012 144.566V145.3L119.206 146.012L119.357 146.725L119.206 147.976V148.688H118.472V149.4V150.134L118.839 150.846L119.206 152.12L118.839 152.832L118.278 153.544L117.566 153.717L116.141 153.911L115.602 154.623L115.062 155.335L114.35 155.896L114.177 156.608L113.81 157.32L113.444 158.033L113.098 158.766L112.904 159.478L112.537 160.191L112.386 160.903L112.019 161.637L111.307 162.349L110.573 162.867L110.033 163.579L109.321 164.118L108.587 164.658L107.875 165.025L107.53 164.312L108.242 164.118L108.954 163.579L109.515 162.867V162.154L110.033 161.442L110.746 161.075L111.112 160.363L111.307 159.478V158.766H110.573L109.861 158.399V159.112L110.033 159.824L109.861 160.557L109.148 161.075L108.954 161.788L108.242 162.349L107.702 163.061L106.99 163.751L106.45 164.464V165.197V165.909V166.622V167.334L106.083 168.067L105.911 168.78L105.565 169.492L105.004 170.204L104.292 170.571L103.58 170.765L102.846 170.571L102.695 169.859L103.04 169.146L103.774 168.413L104.486 167.895L105.199 167.183L105.371 166.449V165.737L104.659 165.909L104.119 166.622L103.58 167.334L103.407 167.528L102.695 166.816L102.134 166.104L101.616 165.391L101.055 164.658L100.342 164.14L99.63 163.579L98.9177 163.233L98.1839 162.694L97.4716 162.154L97.1047 161.442L96.5867 160.709L95.8744 160.903L95.1622 160.557L94.601 159.824L93.8887 159.112L93.1765 158.572L92.8096 157.838H92.0973L91.3635 158.205L90.6512 158.399L89.7663 158.572L90.3059 157.838L90.8455 157.126L91.3635 156.414L91.9246 155.702L92.4426 154.99L93.1765 154.256L93.7161 153.544L94.4283 152.832L94.9679 152.12L95.3133 151.386L96.0471 150.674L96.7594 150.307L97.4716 150.156L98.1839 149.789L98.5508 149.077L99.2631 148.71L99.9753 148.17L100.709 147.804H101.421L102.134 147.286L102.695 146.552V145.84L102.846 145.128V144.415V143.682L102.501 142.97V142.257L101.961 141.545L101.249 141.351L100.537 141.696L99.8242 142.106L100.17 141.394V140.682V139.97V139.236V138.524V137.618L100.537 136.905L100.709 136.172L100.537 135.46L99.8242 135.287H98.9177L98.1839 135.114L97.4716 134.575L97.299 133.863L97.1047 133.151L97.299 132.438L96.9536 131.705L96.7594 130.992L96.9536 130.28L96.5867 129.568L95.8744 129.201L95.1622 128.834L94.4283 128.489H93.7161L93.0038 128.64H92.2916H91.5577L90.8455 129.007L90.1332 128.834L89.2267 128.489L89.4209 127.755L89.572 127.043V126.331L89.2267 125.619L89.572 124.885V124.173L89.2267 123.461V122.749V122.015L88.8598 121.476L89.7663 120.397L88.6871 119.512L88.8598 118.8L89.2267 118.087L89.4209 117.354L89.572 116.642L89.9389 115.929L90.1332 115.217L90.4785 114.484L90.8455 113.771L90.3059 113.059L89.7663 112.347L89.054 111.786L88.3418 111.074L87.6079 110.707L87.4352 109.995L87.0683 109.283L87.2626 108.571L87.6079 107.837L87.9748 107.125L87.7806 106.952L81.3271 106.607L80.2479 102.83H80.9602L81.3271 102.096V101.384L80.8091 100.672L81.1544 99.96V99.2263L80.6148 98.5141L79.881 98.1473L79.1687 97.9962L78.4565 97.6294L77.7442 97.2625H77.0104L76.2981 97.4351H75.5858L74.8736 96.9172L74.1397 96.2051H73.4275L72.7152 96.0108L72.003 95.644L71.2691 95.126L70.7511 94.3923H70.0388L69.3266 94.047L68.5927 93.8528H67.8805H67.1682L66.4344 93.4859L65.8948 92.7738L65.1825 92.2559L64.4703 91.889L63.7364 91.1768L63.0242 90.6158L62.8515 89.9036L63.0242 89.1915V88.4793L62.8515 87.7456L62.5062 87.0334L62.1392 86.3213L62.5062 85.6091L62.8515 84.8754V84.1633L62.5062 83.4511L61.7723 83.6453H61.0601L60.3478 83.818H59.6355L58.9017 83.9906L58.1894 84.5301L57.6498 85.2423L56.916 85.8034L56.2037 85.9544L55.4915 86.3213L54.9519 87.0334L54.2396 87.4003L53.5274 87.5945L52.9662 88.3067L52.4482 89.0188H51.7359L51.0237 88.6735L50.2898 88.4793L49.5776 88.6735L48.8653 88.8246L48.2826 88.9757L47.376 88.803L46.6638 89.1699L45.9515 89.5152H45.2177L44.5054 89.3425L44.1385 88.6088L44.3328 87.8966V85.2207L44.1385 84.5085V83.7748L43.4478 83.6022L42.7356 84.1417L42.0233 84.5085L41.311 85.0265L40.7499 85.7386L40.0376 85.9328L39.3254 86.1055H38.5915L38.0735 85.3933L37.3612 84.6596L36.6058 84.1417L35.8936 83.9475L35.1813 84.1417H34.469L34.6417 83.4295L34.469 82.5232L34.1021 81.7894L33.3899 81.0773L32.8503 80.3651L32.656 79.653L32.5049 78.9408L31.7711 78.4013L31.4258 77.6892L31.7711 76.977L31.9438 76.2433L32.138 75.5311L32.3107 74.819L32.656 74.1068L33.5841 73.74L34.2964 73.0278L34.1021 72.3157L33.9295 71.5819V70.8698L34.2964 70.1576L34.8144 69.4455L35.1813 68.7118L35.5266 67.9996L36.0878 67.2875L36.6058 66.5753L37.3612 66.2085L38.0735 65.8416L38.7858 65.6474H39.6707H40.3829L41.1168 64.9352L41.8291 64.5899L42.7356 64.2231H43.4478L44.1385 64.5899L44.8723 64.2231H45.5846L45.7789 63.8562L46.6638 58.8496L47.0091 54.3609V54.0156L47.2034 53.3034V52.5697L46.6638 51.8576L46.1242 51.1454L45.5846 50.4333L44.8723 50.2606V49.5485V48.8147V48.1026V47.3904L45.0666 46.6783H45.7789L46.4911 46.1172L47.2034 46.6783L47.9372 46.3114L47.743 45.5993L47.0091 44.844L46.2969 44.4987L45.5846 44.6929L45.4119 42.3406H46.1242H47.0091H47.743H48.4552H49.1675H49.8797L50.8078 42.5349L51.5201 41.9738V41.2616L52.405 41.4559L53.1173 41.089L53.8295 40.9163H54.5634L54.9087 41.2616L55.2757 41.9738L55.6426 42.7075L56.3548 43.4197L56.8944 44.1318L57.6283 44.4987L57.7793 45.2108L58.5132 45.4051L59.2255 45.7503L59.9377 46.1172H60.65L61.3838 45.5993L61.7292 44.844L62.4414 45.4051L63.0026 44.4987L63.3695 43.7649L64.0818 43.247L64.794 42.7075L65.5063 42.3406L65.8732 41.6285L66.5855 40.9163L67.2977 40.7437L68.0316 40.5495L68.7438 40.1826L68.5496 39.4705L67.8373 39.2978H67.1251H66.3912L65.679 38.9525V38.2188L65.8732 37.5067L65.5063 36.7945V36.0824L65.312 35.176L64.794 34.4423L64.0818 34.097L63.3695 33.5575V32.8453H64.0818L64.794 33.018L65.5063 32.8453L66.2401 33.2122L66.9524 33.3632L67.6646 33.7301L68.3769 33.9243L69.1107 34.2912L69.823 34.4423L70.5353 33.9243L71.0533 33.2122H71.7871H72.4994L73.2116 32.8453H73.9239L74.6577 32.6511L75.37 32.3058L76.0823 31.7663H76.7945L77.7226 31.2268L78.6075 30.8599L79.1471 30.1478L78.8234 29.3925L79.5141 29.0688L80.2263 28.7019H80.9386L81.6508 29.0688V30.342L80.9386 30.8599V31.5721L81.4782 32.3058L82.0178 33.018L82.1904 33.7301L82.0178 34.4423L81.8235 35.176L81.6508 35.8881V36.6003V37.3124V38.0462V38.7583L82.0178 39.4705L82.1904 40.1826L82.3847 40.9163L82.73 41.6285L83.4638 41.9738L84.1761 42.168L85.061 42.7075L85.7949 42.8802H86.5071L87.241 42.5349L87.9532 42.168L88.6655 41.8443H89.9174H90.6296L91.3419 41.089L92.0757 40.7437H92.788L93.6945 40.5495L93.8672 40.7437H94.5794L95.2917 41.2616L96.1982 41.089L96.932 40.5495V39.8373L96.1982 39.2978L96.3709 38.5857L97.0831 38.7583L97.817 38.9525L98.5292 38.7583L99.2415 38.3915H99.9537L100.321 39.1036H101.033L101.421 39.6863L102.134 39.8589L103.04 40.2042L103.774 39.8589L104.486 39.3194L105.199 39.492L105.911 39.3194L106.645 39.6863L107.357 39.8589L108.069 39.3194L109.861 36.9887L110.228 36.2766L110.746 35.5429L111.307 34.6581L111.825 33.9459L112.386 33.2338L112.192 32.5216L112.731 32.6511Z"/>
</mask>
<path d="M112.731 32.6511L113.444 33.2122L113.81 33.9243L114.523 34.2912L114.35 35.0033L114.523 35.7155V36.4276L114.89 37.1614L115.257 37.8735L115.062 38.5857L115.408 39.2978L115.257 40.0316L115.602 40.7437L116.141 41.4559H116.854L117.566 41.8227L118.278 42.3406L118.645 43.0528L118.839 43.7649L118.127 44.326L117.566 45.0382L116.854 45.7503L116.141 46.4841L115.257 47.1962L114.523 47.5631L113.983 48.2752L113.271 48.7932L112.731 49.5053V50.239L112.386 50.9512L111.825 51.6633L111.112 52.3755L110.573 53.1092H111.307L113.098 52.5697L113.81 52.3755L114.177 51.6633V50.9512L114.89 50.5843L115.408 51.3181L115.969 52.0302L116.141 51.3181L115.602 50.5843L115.775 49.8722L116.336 49.16L117.048 48.7932H117.76H118.472L119.206 48.9874H119.919L120.631 48.7932L121.343 48.6205L122.077 48.2752H122.789L123.501 48.4479L124.581 49.16L124.019 49.8722L123.868 50.5843L123.674 51.3181L123.307 52.0302L122.789 52.7423L122.077 53.4545L121.343 53.6487L120.631 53.4545L119.919 54.0156L119.206 54.3609L118.472 54.1882L117.76 54.0156L117.048 54.1882L116.336 54.3609H115.602H114.89L114.177 54.0156L113.271 53.8214L112.537 54.1882V54.9004L113.444 54.3609L114.177 54.7277L114.89 54.9004L115.602 55.0946H116.336L117.048 54.7277L117.76 54.9004H118.472L119.206 55.0946H119.919L120.631 54.7277L120.804 55.4399L121.516 54.9004L121.71 54.1882L122.422 54.0156L123.135 53.4545H123.868L124.019 52.7423L124.581 52.0302L124.948 51.3181L125.466 50.5843L126.178 50.239L126.89 50.5843L127.624 50.7785L128.336 51.3181L129.048 51.4907L129.761 51.6633L130.495 52.2244L131.207 52.5697L132.113 52.9366L132.998 53.3034L133.711 53.1092L134.444 53.4545L135.157 54.0156L135.351 54.7277L136.063 54.3609L136.775 54.5335L137.488 55.0946L138.027 55.8068V56.5189L137.855 57.231L138.027 57.9648L137.855 58.8496V59.5617L137.315 60.2739L138.027 60.4681L138.567 59.7559L138.739 59.0438L138.934 58.3101L139.646 58.1158L140.186 58.8496L141.092 58.6769L141.437 57.9648L141.804 57.231L142.517 57.5979L143.229 57.9648L143.963 58.4827L144.675 58.8496L145.387 59.0438L146.1 59.7559L146.833 59.9286L147.546 59.3891L148.258 59.7559L148.97 60.1012L149.704 60.6407L150.416 60.2739L151.128 60.4681L151.668 61.1802L152.38 60.835L153.093 60.4681H153.805L154.711 60.986L155.445 61.5471H156.157L156.87 62.065L157.582 62.6261L158.122 63.3383L158.661 64.0504L159.395 64.4173L160.107 64.7626L160.453 65.4963L160.992 66.2085L161.338 66.9206L162.071 67.6328L162.784 67.9996L163.496 68.3665L164.23 68.8844L164.942 69.2513L165.654 69.9634L165.849 70.6756L166.928 70.5029L167.813 70.8698L168.525 71.0424L169.237 71.2367L169.604 71.9488L169.971 72.661L169.798 73.3731V74.1068L170.144 74.819L170.511 75.5311V76.2433L170.683 76.977V77.6892V78.4013L170.511 79.1135L170.316 79.8472L170.511 80.5593V81.2715L170.144 81.9836L169.798 82.7174V83.4295L169.604 84.1417L169.431 84.8538L169.086 85.5876L168.525 86.2781L168.007 86.9903L167.273 87.1845H166.561L166.928 87.8966L166.561 88.6088L166.021 89.3425L165.482 90.0547L164.769 90.5726L164.057 91.1337H163.323L162.784 91.8458L162.071 92.3638L161.704 93.0975L161.338 93.8096L160.992 94.5434L160.625 95.2555L159.395 96.3345L158.834 97.0683L158.122 97.4136L157.237 97.2193L156.524 96.874L156.33 97.5862V98.2983L156.157 99.0105L155.596 99.7442L155.078 100.456L154.884 101.169L155.078 101.881L155.791 101.535V102.248V102.96L155.078 103.521L154.711 104.233L155.078 104.945V105.657V106.391L155.251 107.103V107.815L155.078 108.527V109.261L154.711 109.973L154.539 110.685L154.172 111.398L153.999 112.131L153.46 112.843L153.287 113.556L153.093 114.268L152.92 115.001V115.714L152.38 116.426L151.841 117.138L151.495 117.872L151.301 118.584V119.296L151.128 120.008V120.742L150.934 121.454L150.589 122.166L149.855 122.533L149.143 123.763L148.431 124.324L148.258 125.036V125.748L147.546 125.921L146.833 126.633L146.1 126.827V127.54L145.56 128.273L145.042 128.986V129.698V130.41V131.144L144.308 131.856L143.596 132.223L142.884 132.374L142.171 132.935V133.647L141.437 134.014L140.725 133.819H140.013H139.301H138.567L137.855 133.647L137.142 133.819L136.43 134.014L135.696 133.453L134.984 133.647L134.272 134.014H133.559L132.826 134.532L132.113 135.093L131.401 135.244L130.689 135.805L130.322 136.517H129.61H128.53L127.818 136.884L127.084 137.229H126.372L125.66 137.402L124.948 137.769L124.214 138.308L123.674 139.02L122.962 139.56L122.228 140.099L121.71 140.812L121.343 141.545L120.631 141.891L119.919 141.696L119.357 142.43V143.142L119.206 143.854L119.012 144.566V145.3L119.206 146.012L119.357 146.725L119.206 147.976V148.688H118.472V149.4V150.134L118.839 150.846L119.206 152.12L118.839 152.832L118.278 153.544L117.566 153.717L116.141 153.911L115.602 154.623L115.062 155.335L114.35 155.896L114.177 156.608L113.81 157.32L113.444 158.033L113.098 158.766L112.904 159.478L112.537 160.191L112.386 160.903L112.019 161.637L111.307 162.349L110.573 162.867L110.033 163.579L109.321 164.118L108.587 164.658L107.875 165.025L107.53 164.312L108.242 164.118L108.954 163.579L109.515 162.867V162.154L110.033 161.442L110.746 161.075L111.112 160.363L111.307 159.478V158.766H110.573L109.861 158.399V159.112L110.033 159.824L109.861 160.557L109.148 161.075L108.954 161.788L108.242 162.349L107.702 163.061L106.99 163.751L106.45 164.464V165.197V165.909V166.622V167.334L106.083 168.067L105.911 168.78L105.565 169.492L105.004 170.204L104.292 170.571L103.58 170.765L102.846 170.571L102.695 169.859L103.04 169.146L103.774 168.413L104.486 167.895L105.199 167.183L105.371 166.449V165.737L104.659 165.909L104.119 166.622L103.58 167.334L103.407 167.528L102.695 166.816L102.134 166.104L101.616 165.391L101.055 164.658L100.342 164.14L99.63 163.579L98.9177 163.233L98.1839 162.694L97.4716 162.154L97.1047 161.442L96.5867 160.709L95.8744 160.903L95.1622 160.557L94.601 159.824L93.8887 159.112L93.1765 158.572L92.8096 157.838H92.0973L91.3635 158.205L90.6512 158.399L89.7663 158.572L90.3059 157.838L90.8455 157.126L91.3635 156.414L91.9246 155.702L92.4426 154.99L93.1765 154.256L93.7161 153.544L94.4283 152.832L94.9679 152.12L95.3133 151.386L96.0471 150.674L96.7594 150.307L97.4716 150.156L98.1839 149.789L98.5508 149.077L99.2631 148.71L99.9753 148.17L100.709 147.804H101.421L102.134 147.286L102.695 146.552V145.84L102.846 145.128V144.415V143.682L102.501 142.97V142.257L101.961 141.545L101.249 141.351L100.537 141.696L99.8242 142.106L100.17 141.394V140.682V139.97V139.236V138.524V137.618L100.537 136.905L100.709 136.172L100.537 135.46L99.8242 135.287H98.9177L98.1839 135.114L97.4716 134.575L97.299 133.863L97.1047 133.151L97.299 132.438L96.9536 131.705L96.7594 130.992L96.9536 130.28L96.5867 129.568L95.8744 129.201L95.1622 128.834L94.4283 128.489H93.7161L93.0038 128.64H92.2916H91.5577L90.8455 129.007L90.1332 128.834L89.2267 128.489L89.4209 127.755L89.572 127.043V126.331L89.2267 125.619L89.572 124.885V124.173L89.2267 123.461V122.749V122.015L88.8598 121.476L89.7663 120.397L88.6871 119.512L88.8598 118.8L89.2267 118.087L89.4209 117.354L89.572 116.642L89.9389 115.929L90.1332 115.217L90.4785 114.484L90.8455 113.771L90.3059 113.059L89.7663 112.347L89.054 111.786L88.3418 111.074L87.6079 110.707L87.4352 109.995L87.0683 109.283L87.2626 108.571L87.6079 107.837L87.9748 107.125L87.7806 106.952L81.3271 106.607L80.2479 102.83H80.9602L81.3271 102.096V101.384L80.8091 100.672L81.1544 99.96V99.2263L80.6148 98.5141L79.881 98.1473L79.1687 97.9962L78.4565 97.6294L77.7442 97.2625H77.0104L76.2981 97.4351H75.5858L74.8736 96.9172L74.1397 96.2051H73.4275L72.7152 96.0108L72.003 95.644L71.2691 95.126L70.7511 94.3923H70.0388L69.3266 94.047L68.5927 93.8528H67.8805H67.1682L66.4344 93.4859L65.8948 92.7738L65.1825 92.2559L64.4703 91.889L63.7364 91.1768L63.0242 90.6158L62.8515 89.9036L63.0242 89.1915V88.4793L62.8515 87.7456L62.5062 87.0334L62.1392 86.3213L62.5062 85.6091L62.8515 84.8754V84.1633L62.5062 83.4511L61.7723 83.6453H61.0601L60.3478 83.818H59.6355L58.9017 83.9906L58.1894 84.5301L57.6498 85.2423L56.916 85.8034L56.2037 85.9544L55.4915 86.3213L54.9519 87.0334L54.2396 87.4003L53.5274 87.5945L52.9662 88.3067L52.4482 89.0188H51.7359L51.0237 88.6735L50.2898 88.4793L49.5776 88.6735L48.8653 88.8246L48.2826 88.9757L47.376 88.803L46.6638 89.1699L45.9515 89.5152H45.2177L44.5054 89.3425L44.1385 88.6088L44.3328 87.8966V85.2207L44.1385 84.5085V83.7748L43.4478 83.6022L42.7356 84.1417L42.0233 84.5085L41.311 85.0265L40.7499 85.7386L40.0376 85.9328L39.3254 86.1055H38.5915L38.0735 85.3933L37.3612 84.6596L36.6058 84.1417L35.8936 83.9475L35.1813 84.1417H34.469L34.6417 83.4295L34.469 82.5232L34.1021 81.7894L33.3899 81.0773L32.8503 80.3651L32.656 79.653L32.5049 78.9408L31.7711 78.4013L31.4258 77.6892L31.7711 76.977L31.9438 76.2433L32.138 75.5311L32.3107 74.819L32.656 74.1068L33.5841 73.74L34.2964 73.0278L34.1021 72.3157L33.9295 71.5819V70.8698L34.2964 70.1576L34.8144 69.4455L35.1813 68.7118L35.5266 67.9996L36.0878 67.2875L36.6058 66.5753L37.3612 66.2085L38.0735 65.8416L38.7858 65.6474H39.6707H40.3829L41.1168 64.9352L41.8291 64.5899L42.7356 64.2231H43.4478L44.1385 64.5899L44.8723 64.2231H45.5846L45.7789 63.8562L46.6638 58.8496L47.0091 54.3609V54.0156L47.2034 53.3034V52.5697L46.6638 51.8576L46.1242 51.1454L45.5846 50.4333L44.8723 50.2606V49.5485V48.8147V48.1026V47.3904L45.0666 46.6783H45.7789L46.4911 46.1172L47.2034 46.6783L47.9372 46.3114L47.743 45.5993L47.0091 44.844L46.2969 44.4987L45.5846 44.6929L45.4119 42.3406H46.1242H47.0091H47.743H48.4552H49.1675H49.8797L50.8078 42.5349L51.5201 41.9738V41.2616L52.405 41.4559L53.1173 41.089L53.8295 40.9163H54.5634L54.9087 41.2616L55.2757 41.9738L55.6426 42.7075L56.3548 43.4197L56.8944 44.1318L57.6283 44.4987L57.7793 45.2108L58.5132 45.4051L59.2255 45.7503L59.9377 46.1172H60.65L61.3838 45.5993L61.7292 44.844L62.4414 45.4051L63.0026 44.4987L63.3695 43.7649L64.0818 43.247L64.794 42.7075L65.5063 42.3406L65.8732 41.6285L66.5855 40.9163L67.2977 40.7437L68.0316 40.5495L68.7438 40.1826L68.5496 39.4705L67.8373 39.2978H67.1251H66.3912L65.679 38.9525V38.2188L65.8732 37.5067L65.5063 36.7945V36.0824L65.312 35.176L64.794 34.4423L64.0818 34.097L63.3695 33.5575V32.8453H64.0818L64.794 33.018L65.5063 32.8453L66.2401 33.2122L66.9524 33.3632L67.6646 33.7301L68.3769 33.9243L69.1107 34.2912L69.823 34.4423L70.5353 33.9243L71.0533 33.2122H71.7871H72.4994L73.2116 32.8453H73.9239L74.6577 32.6511L75.37 32.3058L76.0823 31.7663H76.7945L77.7226 31.2268L78.6075 30.8599L79.1471 30.1478L78.8234 29.3925L79.5141 29.0688L80.2263 28.7019H80.9386L81.6508 29.0688V30.342L80.9386 30.8599V31.5721L81.4782 32.3058L82.0178 33.018L82.1904 33.7301L82.0178 34.4423L81.8235 35.176L81.6508 35.8881V36.6003V37.3124V38.0462V38.7583L82.0178 39.4705L82.1904 40.1826L82.3847 40.9163L82.73 41.6285L83.4638 41.9738L84.1761 42.168L85.061 42.7075L85.7949 42.8802H86.5071L87.241 42.5349L87.9532 42.168L88.6655 41.8443H89.9174H90.6296L91.3419 41.089L92.0757 40.7437H92.788L93.6945 40.5495L93.8672 40.7437H94.5794L95.2917 41.2616L96.1982 41.089L96.932 40.5495V39.8373L96.1982 39.2978L96.3709 38.5857L97.0831 38.7583L97.817 38.9525L98.5292 38.7583L99.2415 38.3915H99.9537L100.321 39.1036H101.033L101.421 39.6863L102.134 39.8589L103.04 40.2042L103.774 39.8589L104.486 39.3194L105.199 39.492L105.911 39.3194L106.645 39.6863L107.357 39.8589L108.069 39.3194L109.861 36.9887L110.228 36.2766L110.746 35.5429L111.307 34.6581L111.825 33.9459L112.386 33.2338L112.192 32.5216L112.731 32.6511Z" fill="#C4C4C4" stroke="white" stroke-width="0.56444" stroke-miterlimit="10" mask="url(#path-1-inside-1)"/>
<path d="M37.167 7.55321L37.8793 7.18634L38.5915 6.81948H39.3254L40.0376 6.30155L40.383 5.5894L40.2319 4.85567L39.498 4.31616L38.7858 4.51038L38.0735 4.85567L37.167 5.5894L36.6058 6.30155L36.0878 7.0137L35.3756 7.18634L34.6417 7.55321L33.9295 7.89849L33.2388 8.6538L32.5049 8.99909H31.7711H31.0588H30.1523L29.4401 9.17173L28.9005 9.88388L28.3609 10.596L27.6486 11.3298L27.109 10.596L26.3968 10.4234L25.6845 10.7687L25.1233 11.4808L24.778 12.2145L24.4111 12.9267L24.0442 13.6388L23.8931 14.351V15.0847V15.7969H23.1592L22.447 15.9911L22.1016 16.7032L21.7347 17.4154L21.1735 18.1491L20.4613 18.4944L19.749 19.0339L19.5763 19.7461L19.9433 20.4582V21.1919V21.9257H19.231V21.1919L18.6698 20.4582L18.1518 19.7461H17.418L17.5906 20.4582V21.1919L17.418 21.9257L17.0726 22.6378L16.7057 23.35L15.9935 23.1558L15.7992 23.8679V24.6016L16.3604 25.3138L16.5115 26.0259L17.2453 26.1986L17.418 26.9107L17.2453 27.8171L17.418 28.5508L17.7849 29.263L17.418 29.9751L17.0726 30.6873L17.418 31.421V32.1332V32.8453V33.5575V34.2912L17.2453 35.0033V35.7155L17.5906 36.4276H18.3029V37.1614L17.5906 37.6793L17.0726 38.3914L16.5115 39.1036L16.3604 39.8373L16.1661 40.5495L15.9935 41.2616L15.2812 41.4558H14.5474L13.8351 41.8443L13.1228 41.6285L12.9502 42.3406V43.0528L13.3171 43.7649L13.4898 44.4987L12.7559 44.8439H12.0437L11.8494 45.5993L12.4106 46.8293L11.8494 45.7503L13.1228 47.0236L13.8351 47.7357L14.5474 47.9084L15.2812 48.1026L15.9935 48.2752L16.7057 48.1026L17.418 48.6205L18.1518 49.3542L18.8641 49.6995H19.5763L20.2886 50.0664L21.0224 49.6995L21.1735 48.9874L21.9074 49.3542L22.6196 49.6995L23.3319 49.8937L24.0442 50.4332L24.778 50.6059H25.8572L26.5694 50.7785L27.2817 51.1454L27.994 51.6849L28.7278 52.0518L29.0731 52.7423L29.6343 53.4545L30.3466 53.6487L31.0588 54.0156L31.7711 54.1882L32.138 54.9004L32.8503 55.4399L33.5841 55.8067L33.3899 56.5189L33.7352 57.231L33.3899 57.9648L34.1021 58.1158L34.469 58.8496L35.3756 58.3101L36.0878 58.4827L36.8001 58.1158L37.5123 57.7705L38.2462 57.4037L38.9584 57.231L39.6707 57.4037L40.383 58.1158L41.1168 57.7705L41.6564 57.0584H42.3686L43.1025 57.231H43.7932L44.5054 57.5979L44.6997 58.3101L45.5846 58.4827L42.196 62.7772L43.6205 62.065L44.3328 61.7197L44.6997 62.065V62.7772L45.7789 63.8562L46.6638 58.8496L47.0091 54.3609V54.0156L47.2034 53.3034V52.5697L46.6638 51.8575L46.1242 51.1454L45.5846 50.4332L44.8723 50.2606V49.5484V48.8147V48.1026V47.3904L45.0666 46.6783H45.7789L46.4911 46.1172L47.2034 46.6783L47.9372 46.3114L47.743 45.5993L47.0091 44.8439L46.2969 44.4987L45.5846 44.6929L45.4119 42.3406H46.1242H47.0091H47.743H48.4552H49.1675H49.8797L50.8078 42.5349L51.5201 41.9738V41.2616L52.405 41.4558L53.1173 41.089L53.8295 40.9163H54.5634V40.1826L54.1965 39.4705L53.6785 38.7583L53.1173 38.0462L53.6785 37.3124L54.1965 36.6003L54.3907 35.8881L54.1965 35.176L53.6785 34.4422L53.3115 33.7301L52.9446 33.0179L52.7504 32.3058V31.5721V30.8599V30.1478V29.4356L53.1173 28.7019L53.8295 27.9897L53.6785 27.2776L53.8295 26.5654L53.6785 25.8317L52.9446 25.6806L52.2324 26.0259L51.5201 26.1986H50.4409L49.7287 26.0259L48.9948 25.8317L48.2826 26.0259L47.5703 26.3928H46.858L46.2969 25.6806L45.5846 25.1196L44.8723 24.4074L44.1385 24.0621L43.4478 23.8679L42.7356 23.5226L42.0233 23.35L41.311 23.1558H40.383H39.6707L38.9584 22.9831L38.2462 23.1558L37.5123 23.5226H36.8001L36.4547 22.8105L35.7209 22.271L35.5266 21.5588L35.7209 20.8467V20.0914L35.5266 19.3792L35.1813 18.6671L34.6417 17.9549L34.469 17.2212L34.1021 16.509V15.7969H33.3899L32.8503 16.509H32.138L32.656 15.6242L33.2388 14.9121L33.3899 14.1999L33.2388 13.2936L33.3899 12.5598L33.7352 11.8477L34.1021 11.1355L34.469 10.4234L35.1813 9.71123L35.5266 8.99909L36.2605 8.6538L36.9943 8.26536L37.167 7.55321Z" fill="#E5E5E5" stroke="white" stroke-miterlimit="10"/>
<path d="M54.5418 40.8732V40.161L54.1749 39.4489L53.6569 38.7367L53.0957 38.003L53.6569 37.2909L54.1749 36.5787L54.3691 35.8666L54.1749 35.1328L53.6569 34.4207L53.29 33.7085L52.923 32.9964L52.7288 32.2626V31.5505V30.8383V30.1262V29.3925L53.0957 28.6803L53.808 27.9682L53.6569 27.256L53.808 26.5223L53.6569 25.8101L52.923 25.6375L52.2108 26.0044L51.4985 26.177H50.4193L49.7071 26.0044L48.9732 25.8101L48.261 26.0044L47.5487 26.3712H46.8365L46.2753 25.6375L45.563 25.098L44.8508 24.3858L44.1169 24.0406L43.4262 23.8463L42.714 23.501L42.0017 23.3284L41.2679 23.1342H40.3614H39.6491L38.9368 22.9615L38.2246 23.1342L37.4907 23.501H36.7785L36.4116 22.7889L35.6993 22.2494L35.5051 21.5372L35.6993 20.8251V20.0698L35.5051 19.3576L35.1597 18.6455L34.6201 17.9333L34.4259 17.1996L34.0805 16.4875V15.7753H33.3683L32.8287 16.4875H32.1164L32.6344 15.6027L33.2388 14.8905L33.3683 14.1784L33.2388 13.2504L33.3683 12.5383L33.7136 11.8261L34.0805 11.114L34.4259 10.3802L35.1597 9.68966L35.5051 8.97751L36.2389 8.61065L36.9727 8.24378L37.1454 7.51005L37.8577 7.16477L38.5699 6.7979H39.2822L39.1527 7.18635L38.4404 7.55321L37.8792 8.26536L37.3612 8.99909L37.8792 9.71124L38.2462 10.4234L38.5915 11.1355V11.8477L37.8792 12.5598L37.3612 13.2936L36.9943 14.0057L37.5123 14.7179L37.8792 15.43L38.2462 16.1637L38.9584 16.509L39.6707 16.1637L40.3829 15.7969L40.7499 15.0847V14.351L40.5772 13.6389L40.2319 12.9267L39.498 12.5598V11.8477L39.3253 11.1355V10.4234L39.498 9.71124L40.2319 9.5386L40.9441 8.80487L41.6564 8.65381L42.3686 8.45959L43.1025 8.26536H43.7932L44.3328 7.55321L44.8723 6.81948L44.1385 6.4742L43.4478 5.74047L44.1385 5.02832L44.8723 5.22254L45.0666 5.93469L45.5846 6.66842L45.9515 7.38057L46.6638 7.72586L47.376 7.55321H48.0883L48.8221 7.8985L49.5344 8.26536L50.2467 8.80487L50.8078 9.5386L51.5201 10.2508L52.2324 10.4234L52.9446 10.596H53.6785H54.3907H55.103H55.8152L56.5491 10.2508L57.2613 10.4234H57.9736H58.6859L59.4197 10.9629L60.132 11.1355L60.8442 11.3298L61.5565 11.4808H62.2903L63.0026 11.675H63.7148L64.4271 11.4808H65.1609L65.8732 10.7687H66.5855H67.2977L66.5855 10.2508L65.8732 10.0781L66.5855 9.71124H67.2977H68.0316L68.7438 9.88389L69.4561 9.71124L70.1683 9.5386L71.6144 9.36596H72.3267H73.039L73.7728 9.71124L74.4851 9.5386L73.9239 10.2508L73.2116 10.596L72.4994 10.2508L71.7871 10.0781H71.0533L71.4202 10.7687L71.9814 11.4808L72.6936 12.0419H73.4059L74.1181 12.4088L74.852 12.5598L75.5642 12.7541L76.2765 12.5598L76.9888 12.9267L77.7226 13.2936L78.4349 13.4662L78.8234 14.1999L78.9529 14.9121V15.6242L78.2406 16.1637L78.0679 16.8759H78.8234L79.514 16.7033H80.2263L80.9386 16.509L81.6508 16.7033L82.0177 17.4154V18.1491L81.3055 18.8613L80.5932 19.2066L79.8594 19.3792L79.1471 20.0914V20.8467V21.5588L79.8594 22.0767L80.2263 22.8105L79.514 23.35H78.8234H78.0679H77.3557L76.7945 24.0621V24.7527L76.6434 25.4864L76.4492 26.1986V26.9107L77.1614 27.4718L77.8737 27.9897L78.4349 28.7019L78.8234 29.4356L79.1471 30.1478L78.6075 30.8599L77.7226 31.2268L76.7945 31.7663H76.0823L75.37 32.3058L74.6577 32.6511L73.9239 32.8453H73.2116L72.4994 33.2122H71.7871H71.0533L70.5353 33.9243L69.823 34.4423L69.1107 34.2912L68.3769 33.9243L67.6646 33.7301L66.9524 33.3632L66.2401 33.2122L65.5063 32.8453L64.794 33.018L64.0818 32.8453H63.3695V33.5575L64.0818 34.097L64.794 34.4423L65.312 35.176L65.5063 36.0824V36.7945L65.8732 37.5067L65.6789 38.2188V38.9525L66.3912 39.2978H67.1251H67.8373L68.5496 39.4705L68.7438 40.1826L68.0316 40.5495L67.2977 40.7437L66.5855 40.9163L65.8732 41.6285L65.5063 42.3406L64.794 42.7075L64.0818 43.247L63.3695 43.7649L63.0026 44.4987L62.4414 45.405L61.7291 44.844L61.3838 45.5993L60.65 46.1172H59.9377L59.2254 45.7503L58.5132 45.405L57.7793 45.2108L57.6283 44.4987L56.8944 44.1318L56.3548 43.4197L55.6426 42.7075L55.2756 41.9738L54.9087 41.2616L54.5418 40.8732Z" fill="#E5E5E5" stroke="white" stroke-miterlimit="10"/>
<path d="M11.8494 45.7502L12.4106 46.8293L11.6767 47.1961H10.9645L10.058 47.3903L9.34571 47.7356L8.63345 48.4694L8.46078 49.1815L8.09386 49.8937L8.46078 50.6058L8.26653 51.3395L7.74852 52.0517L7.18735 52.7423L7.01468 53.4544V54.1881L6.47509 54.9003L5.76283 55.6124L5.59016 56.3246L5.9355 57.0583L5.76283 57.7705V58.4826L5.9355 59.1948L5.59016 59.9285V60.6406L6.30242 60.9859L7.01468 61.3528L7.89961 60.9859L8.80612 60.8349L9.53996 60.6406L10.2522 60.468L10.4249 61.1801L10.058 61.8923L9.69105 62.626L8.97879 62.9713L8.26653 63.5108L7.74852 64.223L7.01468 64.9351L6.66934 65.6473L5.9355 66.2084L5.22324 66.9205L4.68365 67.6327L4.51098 68.3664L4.31672 69.0785L4.51098 69.7907L5.22324 70.1575H6.10817L6.82043 69.9633L7.18735 69.2512L7.89961 68.5174L8.63345 68.1722L9.34571 67.9995L10.058 68.5174H10.7702L11.3314 69.2512L12.0437 69.4454L12.7559 69.5965L13.1228 68.8843L13.6624 68.1722L14.0294 67.46L14.3963 66.7263L14.5474 65.8415L14.7416 65.1293L15.1085 64.4172L15.2812 63.705L15.9935 64.223L16.3604 63.5108V62.7771L16.8784 62.0649L17.5907 61.7197L18.4972 61.3528L19.3821 60.9859L20.1159 60.6406L21.0224 60.2738L21.9074 59.7558L22.6196 59.1948L23.3319 58.4826L23.8931 57.7705L24.4111 57.0583L24.6053 56.3246L24.9722 55.6124L25.1233 54.9003L25.3176 54.1881V53.4544L26.0298 53.3033L25.4903 52.2243L24.778 51.6848L25.4903 51.3395L25.814 50.5842L24.778 50.6058L24.0442 50.4332L23.3319 49.8937L22.6196 49.6994L21.9074 49.3542L21.1735 48.9873L21.0224 49.6994L20.2886 50.0663L19.5763 49.6994H18.8641L18.1518 49.3542L17.418 48.6204L16.7057 48.1025L15.9935 48.2751L15.2812 48.1025L14.5474 47.9083L13.8351 47.7356L13.1228 47.0235L11.8494 45.7502Z" fill="#E5E5E5" stroke="white" stroke-miterlimit="10"/>
<path d="M45.7573 63.8345L44.6781 62.7555V62.0434L44.3112 61.6981L43.5989 62.0434L42.1528 62.7555L45.563 58.461L44.6781 58.2884L44.4838 57.5762L43.7716 57.2094H43.0809L42.3471 57.0152H41.6348L41.0952 57.7489L40.3614 58.0942L39.6491 57.382L38.9369 57.2094L38.2246 57.382L37.4908 57.7489L36.7785 58.0942L36.0662 58.461L35.354 58.2884L34.4259 58.8279L34.0805 58.0942L33.3683 57.9431L33.7136 57.2094L33.3683 56.4972L33.5409 55.7851L32.8287 55.4182L32.1164 54.8787L31.7495 54.145L31.0372 53.9939L30.325 53.627L29.6127 53.4328L29.0516 52.7207L28.6846 52.0301L27.9724 51.6632L27.2601 51.1237L26.5479 50.7569L25.814 50.5842L25.4687 51.318L24.7564 51.6632L25.4687 52.2028L26.0083 53.2602L25.296 53.4328V54.145L25.1018 54.8787L24.9291 55.5909L24.5837 56.303L24.3895 57.0152L23.8715 57.7489L23.3103 58.461L22.5981 59.1732L21.8858 59.7343L21.0009 60.2522L20.0728 60.6191L19.3605 60.9643L18.4756 61.3312L17.5691 61.6981L16.8568 62.0434L16.3172 62.7555V63.4892L15.9719 64.2014L15.2596 63.6619L15.087 64.3956L14.72 65.1078L14.5258 65.8199L14.3747 66.7047L14.0078 67.4169L13.6408 68.1506L13.1013 68.8627L12.7343 69.5749L12.0221 69.4022L11.3098 69.2296L10.7486 68.4959H10.0364L9.32413 67.9779L8.59028 68.1506L7.87802 68.4959L7.16576 69.2296L6.79884 69.9417L6.08658 70.136H5.20165L5.02898 70.3302V71.0423L5.39591 71.7545H6.10817L6.47509 72.4666L5.9355 73.373L5.22324 73.7399L5.39591 74.452L6.10817 74.8189L6.82043 74.9915L7.89961 75.1858L8.63345 75.531L9.34571 75.8979L10.058 76.6101L10.6191 77.3222L10.9645 78.0559L11.3314 78.7681L11.5041 79.4802L12.2379 79.9982L12.9502 80.5593L14.202 81.444L14.3963 82.1562L14.5474 82.8683L14.7416 83.6021L15.1085 84.3142L15.4755 85.0264L15.9935 85.7385L16.3604 86.4722L16.8784 87.1844L17.2453 88.0908L17.418 88.8029L17.9576 89.5151L18.3029 90.2488L18.4972 90.961L19.0368 91.6731L19.749 92.2126L20.4613 92.9248L20.8282 93.6369L21.0224 94.3706L21.5405 95.1044L22.1016 95.8165L22.8139 96.5287L23.1592 97.2408L23.5261 98.1256L24.0442 98.8593H24.778L25.1233 99.5715L24.778 100.284L24.4111 100.996V101.73L24.9722 102.442L25.1233 103.154L25.8572 103.715L26.5694 104.06L27.2817 104.427L27.994 105.139L28.7278 105.506L29.2674 106.218L29.7854 106.93L30.5192 107.297L31.2315 107.47L31.9438 107.643L32.656 108.009L33.3899 108.355L34.1021 108.7L34.8144 109.067L35.5266 109.412H36.2605L36.9943 109.973L37.7066 110.34L38.4404 110.491H39.1527L39.8649 110.858L40.5772 111.225L41.3111 111.57L42.0233 112.131L42.7356 112.843L43.1025 113.556L43.7932 114.095L44.5054 114.44L45.0666 115.152L45.7789 115.714L46.4911 116.08L47.2034 115.886L47.9372 115.714L48.6495 115.347L48.9948 114.635L48.8222 113.922L49.3617 113.21L49.1675 112.476L48.6495 111.764L48.4552 111.052L48.8222 110.34L49.5344 109.973L50.2467 109.606L50.9589 109.261L50.8078 108.527L50.6136 107.815L49.8798 108.009L49.1675 107.47L48.4552 107.297L47.743 106.93L47.0091 106.585L47.743 106.391L48.4552 106.218L47.9372 105.506L48.0883 104.6L48.8222 104.945L49.1675 105.506L49.5344 104.772L49.8798 104.233L49.7287 103.521L50.074 101.363L50.9589 100.478L50.6136 98.3198V97.0682L51.5201 94.0038L48.2826 88.9756L47.3761 88.8029L46.6638 89.1698L45.9515 89.5151H45.2177L44.5054 89.3424L44.1385 88.6087L44.3328 87.8965V85.2206L44.1385 84.5084V83.7747L43.4478 83.6021L42.7356 84.1416L42.0233 84.5084L41.3111 85.0264L40.7499 85.7385L40.0376 85.9327L39.3254 86.1054H38.5915L38.0735 85.3932L37.3612 84.6595L36.6058 84.1416L35.8936 83.9474L35.1813 84.1416H34.469L34.6417 83.4294L34.469 82.5231L34.1021 81.7893L33.3899 81.0772L32.8503 80.365L32.656 79.6529L32.5049 78.9407L31.7711 78.4012L31.4258 77.6891L31.7711 76.9769L31.9438 76.2432L32.138 75.531L32.3107 74.8189L32.656 74.1067L33.5841 73.7399L34.2964 73.0277L34.1021 72.3156L33.9295 71.5818V70.8697L34.2964 70.1575L34.8144 69.4454L35.1813 68.7117L35.5266 67.9995L36.0878 67.2874L36.6058 66.5752L37.3612 66.2084L38.0735 65.8415L38.7858 65.6473H39.6707H40.383L41.1168 64.9351L41.8291 64.5898L42.7356 64.223H43.4478L44.1385 64.5898L44.8724 64.223H45.5846L45.7573 63.8345Z" fill="#E5E5E5" stroke="white" stroke-miterlimit="10"/>
<path d="M82.1904 17.0701L82.9027 17.588H83.615H84.3488L85.0611 18.1491V18.8612L85.4064 19.5734L86.1618 20.2855L86.8741 21.0193L87.0468 21.7314V22.4436L86.8741 23.1557L86.6798 23.8679V24.6016L87.241 23.8679L87.5863 23.1557H88.3202L89.0324 23.5226L89.7447 23.8679L90.2627 24.6016L90.8239 25.3137L91.5361 25.6806L91.7088 26.3928L91.9031 27.1049L91.7088 27.8171V28.5508L91.5361 29.2629L90.8239 29.7809L89.7447 29.9751L89.5505 30.6872L89.3778 31.421L89.0324 32.1331V32.8453L89.2051 33.5574L89.3778 34.2911L89.9174 35.0033L90.2627 35.7154L90.9966 36.2334L91.7088 36.9671L91.9031 37.6792L92.2484 38.3914L92.788 39.1035L93.1333 39.8373L93.6945 40.5494L92.788 40.7436H92.0757L91.3419 41.0889L90.6296 41.8442H89.9174H88.6655L87.9533 42.168L87.241 42.5348L86.5072 42.8801H85.7949L85.0611 42.7075L84.1761 42.168L83.4639 41.9737L82.73 41.6284L82.3847 40.9163L82.1904 40.1826L82.0178 39.4704L81.6508 38.7583V38.0461V37.3124V36.6002V35.8881L81.8235 35.1759L82.0178 34.4422L82.1904 33.7301L82.0178 33.0179L81.4782 32.3058L80.9386 31.572V30.8599L81.6508 30.3419V29.0687L80.9386 28.7018H80.2263L79.5141 29.0687L78.8234 29.3924L78.4133 28.6803L77.8521 27.9681L77.1399 27.4502L76.4276 26.8891V26.177L76.6219 25.4648L76.7729 24.7311V24.0405L77.3341 23.3284H78.0464H78.8234H79.4925L80.2047 22.7888L79.8378 22.0551L79.1256 21.5372V20.825V20.0697L79.8378 19.3576L80.5501 19.1849L81.2839 18.8397L81.9962 18.1059V17.3938L82.1904 17.0701Z" fill="#E5E5E5" stroke="white" stroke-miterlimit="10"/>
<path d="M91.8815 27.0831L91.6872 27.7953V28.5074L91.5146 29.2412L90.8023 29.7591L89.7231 29.9533L89.5289 30.6655L89.3562 31.3776L89.0109 32.1113V32.8235L89.1619 33.5356L89.3562 34.2478L89.8958 34.9815L90.2411 35.6937L90.975 36.2116L91.6872 36.9453L91.8815 37.6575L92.2268 38.3696L92.7664 39.0818L93.1117 39.8155L93.6729 40.5277L93.8672 40.7435H94.5794L95.2917 41.2614L96.1982 41.0888L96.932 40.5492V39.8371L96.1982 39.2976L96.3709 38.5854L97.0831 38.7581L97.817 38.9523L98.5292 38.7581L99.2415 38.3912H99.9538L100.321 39.1034H101.033L101.745 38.5854L101.939 37.8733L102.306 37.1611L102.673 36.4274L102.824 35.7153L103.191 35.0031V34.291L102.479 33.5572L102.112 32.8451V32.1329L101.939 31.4208L101.594 30.687V29.9749L101.745 29.2627L102.479 28.8959L103.019 28.1837L103.386 27.4716L103.731 26.7379L103.019 26.5652H102.306L101.594 26.3926L100.86 26.1983L100.148 26.0257L99.4357 25.6804L98.7235 26.0257L97.9896 26.1983H97.2774L96.5651 26.3926H95.8529L95.119 26.0257H94.4068L93.6945 26.1983L92.9822 26.0257L92.2484 26.1983L92.0757 26.9105L91.8815 27.0831Z" fill="#E5E5E5" stroke="white" stroke-miterlimit="10"/>
<path d="M101.421 39.6861L102.134 39.8587L103.04 40.204L103.774 39.8587L104.486 39.3192L105.199 39.4919L105.911 39.3192L106.645 39.6861L107.357 39.8587L108.069 39.3192L109.861 36.9885L110.228 36.2764L110.746 35.5427L111.307 34.6579L111.825 33.9457L112.386 33.2336L112.192 32.5214L112.019 31.7877H111.307L111.112 32.5214L110.94 31.7877L110.4 31.0755L109.666 30.536L108.954 29.9965L108.436 29.2844L107.702 28.5722L106.99 28.0111H106.278L105.565 27.6659L105.199 26.9321L104.119 27.299L103.386 27.4716L103.019 28.1838L102.479 28.8959L101.745 29.2628L101.594 29.975V30.6871L101.939 31.4208L102.112 32.133V32.8451L102.479 33.5573L103.191 34.291V35.0032L102.824 35.7153L102.673 36.4275L102.306 37.1612L101.939 37.8733L101.745 38.5855L101.033 39.1034L101.421 39.6861Z" fill="#E5E5E5" stroke="white" stroke-miterlimit="10"/>
<path d="M49.7502 113.944L50.8294 115.217L51.0237 116.102L51.1748 116.814L51.5417 117.526L52.2539 118.238L52.9662 118.799L53.7 119.317L53.3331 120.03L52.9662 120.957L53.1605 121.67L52.8151 122.382L52.9662 123.094L53.1605 123.828L53.3331 124.54L53.8943 125.252L54.4123 125.964L54.6066 126.698V127.41L54.7792 128.122L55.1246 128.834L55.4915 129.568L55.6857 130.28L55.8368 130.992L55.1246 131.51L55.6857 132.244L56.398 132.438L57.1103 132.783L57.8225 132.589L58.3621 131.704L58.5564 130.992L59.2686 130.798L59.9809 130.28L60.1535 129.568L60.8658 129.374L61.2327 128.64H61.945L62.6572 129.007L63.3911 129.374L64.1034 129.568L64.8156 129.374L65.5279 129.201H66.2617L66.974 129.719V130.453L67.3409 131.165L68.0532 131.359V130.625L68.2474 129.913L68.5927 129.201L68.9597 128.489H69.6719H70.5568H71.4634H72.1972L72.9095 129.007L73.0821 128.64L73.9886 124.885V122.382L75.7801 119.145L78.6507 118.799L81.3271 118.087H84.7157L87.9748 119.512L88.8598 121.475L89.7663 120.396L88.6871 119.512L88.8598 118.799L89.2267 118.087L89.4209 117.354L89.572 116.641L89.9389 115.929L90.1332 115.217L90.4785 114.483L90.8455 113.771L90.3059 113.059L89.7663 112.347L89.054 111.786L88.3418 111.074L87.6079 110.707L87.4352 109.995L87.0683 109.283L87.2626 108.57L87.6079 107.837L87.9748 107.125L87.7806 106.952L81.3271 106.607L80.2479 102.83H80.9602L81.3271 102.096V101.384L80.8091 100.672L81.1544 99.9599V99.2261L80.6148 98.514L79.881 98.1471L79.1687 97.9961L78.4565 97.6292L77.7442 97.2623H77.0104L76.2981 97.435H75.5858L74.8736 96.917L74.1397 96.2049H73.4275L72.7152 96.0107L72.003 95.6438L71.2691 95.1259L70.7511 94.3921H70.0388L69.3266 94.0469L68.5927 93.8526H67.8805H67.1682L66.4344 93.4858L65.8948 92.7736L65.1825 92.2557L64.4703 91.8888L63.7364 91.1767L63.0242 90.6156L62.8515 89.9034L63.0242 89.1913V88.4791L62.8515 87.7454L62.5062 87.0333L62.1392 86.3211L62.5062 85.609L62.8515 84.8752V84.1631L62.5062 83.4509L61.7723 83.6452H61.0601L60.3478 83.8178H59.6355L58.9017 83.9904L58.1894 84.5299L57.6498 85.2421L56.916 85.8032L56.2037 85.9543L55.4915 86.3211L54.9519 87.0333L54.2396 87.4001L53.5274 87.5943L52.9662 88.3065L52.4482 89.0186H51.7359L51.0237 88.6734L50.2898 88.4791L49.5776 88.6734L48.8653 88.8244L48.2826 88.9755L51.5201 94.0037L50.6136 97.0681V98.3198L50.9589 100.478L50.074 101.363L49.7287 103.521L49.8797 104.233L49.5344 104.772L49.1675 105.506L48.8222 104.945L48.0883 104.6L47.9372 105.506L48.4552 106.218L47.743 106.391L47.0091 106.585L47.743 106.93L48.4552 107.297L49.1675 107.47L49.8797 108.009L50.6136 107.815L50.8078 108.527L50.9589 109.261L50.2467 109.606L49.5344 109.973L48.8222 110.34L48.4552 111.052L48.6495 111.764L49.1675 112.476L49.3617 113.21L49.7502 113.944Z" fill="#E5E5E5" stroke="white" stroke-miterlimit="10"/>
<path d="M88.8598 121.476L87.9748 119.512L84.7157 118.087H81.3271L78.6507 118.8L75.7801 119.145L73.9887 122.382V124.885L73.0821 128.64L72.9095 129.007L73.4275 129.374L74.1397 129.913L74.7009 130.626L75.0678 131.359L75.7801 131.877L76.4924 132.589L77.2046 133.323L77.9385 133.668L78.6507 134.229H79.363L80.0752 134.575L80.8091 135.287H81.4997L82.0393 136.021L82.7516 136.172L83.4854 136.733L84.1977 137.445L84.91 137.812L85.6222 138.157L86.3561 138.524H87.0683L87.7806 138.697L88.4928 138.891L89.2267 139.409L89.9389 139.97V140.682L89.4209 141.394L89.054 142.106L88.3418 142.84L88.1475 143.552L87.7806 144.437L87.2626 145.149L87.0683 145.861L86.8957 146.595V147.307L87.6079 147.134H88.3418L89.054 147.307L89.7663 147.652L90.4785 147.847H91.2124L91.9246 148.019H92.6369H93.3492L94.083 148.213L94.7953 147.652L95.5075 147.847H96.2198L96.9536 147.307L97.299 146.595L97.8386 145.861L98.5508 145.343L99.2631 144.976L99.8242 144.264V143.552L99.63 142.84L99.8242 142.106L100.17 141.394V140.682V139.97V139.236V138.524V137.618L100.537 136.905L100.709 136.172L100.537 135.46L99.8242 135.287H98.9177L98.1839 135.114L97.4716 134.575L97.299 133.863L97.1047 133.15L97.299 132.438L96.9536 131.705L96.7594 130.992L96.9536 130.28L96.5867 129.568L95.8744 129.201L95.1622 128.834L94.4283 128.489H93.7161L93.0038 128.64H92.2916H91.5577L90.8455 129.007L90.1332 128.834L89.2267 128.489L89.4209 127.755L89.572 127.043V126.331L89.2267 125.619L89.572 124.885V124.173L89.2267 123.461V122.749V122.015L88.8598 121.476Z" fill="#E5E5E5" stroke="white" stroke-miterlimit="10"/>
<path d="M49.3617 113.21L49.7502 113.944L50.8294 115.217L51.0237 116.102L51.1748 116.814L51.5417 117.526L52.2539 118.238L52.9662 118.8L53.7 119.317L53.3331 120.03L52.9662 120.958L53.1605 121.67L52.8151 122.382L52.9662 123.094L53.1605 123.828L53.3331 124.54L53.8943 125.252L54.4123 125.964L54.6066 126.698V127.41L54.7792 128.122L55.1246 128.834L55.4915 129.568L55.6857 130.28L55.8368 130.992L55.1246 131.51L55.6857 132.244L56.398 132.438L57.1103 132.784L57.8225 132.589L58.3621 131.705L58.5564 132.071V132.784L58.3621 136.172L54.9519 138.33L54.4123 139.409L54.6066 140.121V140.855L54.0454 141.567V142.279L54.2396 142.991L54.6066 143.725L54.7792 144.437L54.4123 145.149V145.861L54.9519 146.595L55.1246 147.307L54.4123 147.847V148.58L53.7 149.292L53.1605 150.005L52.8151 150.717L52.6209 151.45L52.2539 152.163L51.9086 152.875L51.7359 153.587L51.5417 154.472L51.369 155.184L51.0237 155.918L50.6568 156.63L50.8294 157.342L51.0237 158.054L51.369 158.788L51.5417 159.5L51.1748 160.212L50.8294 160.924V161.658L51.0237 162.37L50.4625 163.082L49.7502 163.276L49.5776 163.989L50.0956 164.722L50.8294 165.435L51.5417 166.147L51.0237 166.859L51.369 167.593L51.7359 168.305L52.0813 169.017L51.9086 169.729L52.0813 170.096L52.4482 170.808L52.9662 171.52L53.1605 172.254V172.966L53.3331 173.678V174.39L53.1605 174.757L52.4482 175.124V175.836L52.0813 176.548L51.9086 177.261L51.1748 177.627L51.0237 178.34L51.1748 179.052L51.5417 179.785L51.9086 180.498L51.5417 181.21L51.369 181.922L50.8294 182.656L50.2898 183.368V184.08L50.4625 184.792L50.6568 185.526L50.2898 186.238V186.95L50.6568 187.662L51.0237 188.396L51.369 189.108L51.5417 189.82L51.7359 190.532L51.0237 191.266L50.2898 191.784V192.496V193.208L50.0956 193.942L49.9445 194.654L49.7502 195.366V196.079V196.812V197.524V198.237V198.949V199.682L49.9445 200.395L50.2898 201.107L50.6568 201.819L51.0237 202.553V203.265L50.8294 203.977L50.2898 204.538V205.25L50.4625 205.962L51.1748 206.502L51.5417 207.214V207.926V208.638L51.7359 209.372L51.9086 210.084V210.796L52.6209 211.163L53.3331 210.796L54.0454 211.163L54.4123 211.875L53.7 212.415L52.8151 212.587H52.0813L51.369 212.782L52.0813 213.3L52.8151 213.666L53.5274 214.033L53.7 214.745L52.9662 215.458L52.8151 216.17V216.903L52.6209 217.81L52.9662 217.939V218.673L53.5274 219.385L53.3331 220.097L52.9662 220.81L52.8151 221.543V222.255L52.4482 222.968L52.2539 223.68V224.413V225.126L52.8151 225.838V226.55L52.4482 227.284L51.9086 227.996L51.5417 228.708L51.369 229.42L51.1748 230.154V230.866V231.578L51.0237 232.29L51.5417 233.002L52.0813 233.736L52.8151 233.887L53.5274 233.542L54.2396 233.002L54.6066 233.736V234.448L54.4123 235.16L54.6066 235.873L54.9519 236.606L55.1246 237.318L55.3188 238.031L56.0311 238.397H56.7649L57.4772 238.203L58.1894 238.031H58.9017H59.6355H60.3478H61.2327L61.5781 238.743L61.0601 239.476H60.3478L59.6355 239.628L58.9017 240.189L58.5564 240.901L58.7074 241.613V242.347V243.059V243.771L58.5564 244.483H57.8225L57.1103 244.138L56.398 243.771L55.8368 243.059L56.5707 242.498L57.2829 242.692L57.9952 241.613L58.1894 240.901L57.9952 240.189L57.2829 240.361L57.1103 241.073L56.7649 241.786H55.8368L55.3188 242.498V243.426L54.6066 243.059L54.4123 242.347L54.7792 241.613V240.901L55.1246 240.189L54.4123 239.822L54.2396 240.555L54.4123 241.268L53.8943 241.98H53.1605L53.3331 241.268V240.555H52.6209L52.4482 239.822L53.1605 239.282L52.9662 238.57L52.0813 238.203L51.7359 237.491V236.757L51.1748 236.045L50.8294 235.16L51.0237 234.448L50.2898 233.736L50.0956 233.002L49.3833 232.463L49.2107 231.751L49.3833 231.039V230.305L49.2107 229.593L49.038 228.881L48.8653 228.168L48.4984 227.284V226.55L47.7861 226.01L47.9588 225.298L48.1531 224.564L47.4192 223.68V222.968L47.225 222.255L47.9588 221.889V221.176L47.5919 220.464L46.8796 220.27L46.5127 220.982L45.8004 220.81L45.0882 220.097L44.7213 220.81L44.9155 221.543L44.2033 221.694L43.8363 220.982V220.27L44.3543 219.558L44.7213 218.824V218.112V217.4L45.4335 217.227H46.1674L46.8796 217.594V218.306L46.707 219.018H47.4192L48.1531 219.385L48.3041 218.673V217.939L47.9588 217.227L48.4984 216.515L48.1531 215.803L48.3041 215.069L48.4984 214.357L49.038 213.645L49.7502 213.278L49.9445 212.566V211.854L49.2107 211.293L48.4984 211.142L48.3041 210.408V209.696V208.789L47.9588 208.077L48.1531 207.343L48.4984 206.631L48.3041 205.919L48.6711 205.207L48.4984 204.473L47.9588 203.761L48.6711 204.128L49.038 203.416L48.3041 203.049V202.337L48.4984 201.603L47.7861 201.085L47.0739 201.452L46.8796 202.164L46.1674 202.337H45.2824L44.9155 201.603L44.2033 201.085V200.373V199.661L44.3543 198.927V198.215L44.2033 197.503V196.791V195.863L44.3543 195.151L44.7213 194.438V193.726L44.9155 193.014L44.7213 192.28L44.3543 191.568L44.009 190.856L43.8363 190.144V189.41V188.698V187.986L43.6421 187.274L43.2967 186.54L43.4694 185.461L44.2033 184.749L44.5486 184.037L44.9155 183.325L45.0882 182.591V181.879L44.9155 181.167V180.454L45.4335 179.721L45.6278 179.008L45.8004 178.296L46.1674 177.412L46.5127 176.699V175.966V175.254L46.707 174.541V173.829V173.117L47.0739 172.383L47.4192 171.671L47.0739 170.959L46.8796 170.247L47.0739 169.513L47.5919 168.801L47.225 168.089L47.0739 167.377L47.225 166.643V165.931L47.0739 165.219L46.34 164.507L46.1674 163.061L45.9947 162.349L45.8004 161.636V160.708L45.9947 159.996L46.34 159.284L46.5127 158.572L45.9947 157.838L46.34 157.126V156.414L46.1674 155.702L45.9947 154.99V154.256L46.1674 153.544L46.34 152.832V152.119L46.5127 151.386V150.674V149.961L46.8796 149.249L47.0739 148.516V147.631L47.4192 146.724L47.7861 146.012V145.3L47.225 144.566L46.8796 143.682L47.0739 142.775L47.4192 142.063L47.5919 141.351L47.4192 140.639V139.905V139.193L47.5919 138.481V137.769V136.884L47.7861 136.15V135.438L47.5919 134.726L47.0739 134.014V133.28L47.7861 132.568V131.856L47.9588 131.143L48.1531 130.41V129.698V128.985L48.3041 128.273L48.1531 127.367L47.9588 126.633L47.4192 125.921V125.209V124.324V123.418V122.684V121.972L47.5919 121.087L47.4192 120.181L47.225 119.468L46.707 118.756L46.5127 118.023L46.34 117.138L46.5127 116.426L46.4911 116.08L47.2034 115.886L47.9372 115.714L48.6495 115.347L48.9948 114.635L48.8221 113.922L49.3617 113.21Z" fill="#E5E5E5" stroke="white" stroke-miterlimit="10"/>
<path d="M44.7213 202.876V203.589V204.322V205.035V205.747L44.3543 206.459V207.193V207.905L44.5486 208.617L45.2824 208.423H45.9947L46.34 207.71V206.998V206.286L45.6278 205.747L45.8004 205.035L46.34 204.322L46.1674 203.589L45.9947 202.876L45.2824 203.049L44.7213 202.876Z" fill="#E5E5E5" stroke="white" stroke-miterlimit="10"/>
<path d="M64.6429 246.296L63.9307 246.447L63.2184 247.008L62.6573 246.296H61.945L61.2327 246.102L60.5205 245.735L59.7866 246.296L58.9017 246.641L58.1894 246.447L57.4772 247.008L58.1894 247.181L58.9017 246.814L59.0744 247.526H59.7866L60.5205 248.087L60.6931 247.353L61.427 247.181H62.1392L62.8515 247.526L63.5638 247.893L64.6214 247.353L64.6429 246.296Z" fill="#E5E5E5" stroke="white" stroke-miterlimit="10"/>
<path d="M54.6066 243.771L54.0454 244.483L54.2396 245.217H54.9519L55.6857 245.368L56.2038 244.656L55.4915 243.944L54.6066 243.771Z" fill="#E5E5E5" stroke="white" stroke-miterlimit="10"/>
<path d="M62.3119 239.282L61.7723 239.994V240.707H60.8658L60.1536 240.361L59.7866 241.073V241.786L59.9809 242.498L60.6931 242.865L61.427 242.347L61.7723 243.059L61.0601 243.426L60.8658 244.138L61.0601 244.85L61.7723 245.368L62.5062 245.562H63.2184L63.9307 245.929H64.6429V245.023L64.4703 243.944L64.2976 242.692L64.1034 241.98V240.901V240.189V239.476L63.3911 239.994L62.6573 239.822L62.3119 239.282Z" fill="#E5E5E5" stroke="white" stroke-miterlimit="10"/>
<path d="M53.5274 243.426L52.9662 242.692L52.2539 242.347H51.5417L50.8294 241.98L50.0956 241.44V242.152L50.6568 242.865L51.369 243.059H52.0813H52.8151L53.5274 243.426Z" fill="#E5E5E5" stroke="white" stroke-miterlimit="10"/>
<path d="M47.4192 227.284L46.707 227.629H45.9947L46.1674 228.341L46.5127 229.075L45.8004 229.593L45.9947 230.305L46.34 231.039L47.0739 230.672L47.5919 231.384L47.9588 232.096L48.6711 232.29V231.384L48.4984 230.672L48.3041 229.96L47.9588 229.075V228.341L47.4192 227.284Z" fill="#E5E5E5" stroke="white" stroke-miterlimit="10"/>
<path d="M65.3768 247.354L65.7221 248.087L66.4344 248.605L67.1682 248.799L67.8805 248.238L67.6862 247.526L66.974 247.354H65.3768Z" fill="#E5E5E5" stroke="white" stroke-miterlimit="10"/>
<path d="M65.0099 248.238L64.2976 248.152H63.5638L62.8515 248.432L62.5062 249.166L63.2184 249.684L63.9307 249.166H64.643L65.3768 249.317L65.7221 248.605L65.0099 248.238Z" fill="#E5E5E5" stroke="white" stroke-miterlimit="10"/>
<path d="M100.537 141.696L101.249 141.351L101.961 141.545L102.501 142.257V142.97L102.846 143.682V144.416V145.128L102.695 145.84V146.552L102.134 147.286L101.421 147.804H100.709L99.9753 148.17L99.2631 148.71L98.5508 149.077L98.1839 149.789L97.4716 150.156L96.7594 150.307L96.0471 150.674L95.3133 151.386L94.9679 152.12L94.4283 152.832L93.7161 153.544L93.1765 154.256L92.4427 154.99L91.9246 155.702L91.3635 156.414L90.8455 157.126L90.3059 157.838L89.7663 158.572L89.4209 159.284L89.2267 159.996L89.054 160.709L88.8598 161.442L88.6871 162.155V162.867L88.3418 163.579L88.1475 164.313L87.9748 165.025V165.737L87.7806 166.449V167.183V167.895L87.6079 168.607L87.0683 169.319L86.8957 170.053L86.7014 170.765V171.477L86.8957 172.189L87.0683 172.923V173.635L87.2626 174.347L87.9748 174.714L88.6871 175.06L89.4209 175.426L90.1332 175.793L90.8455 176.139L91.3635 176.851L91.2124 177.584L90.6512 178.297V179.009L91.3635 179.721L92.0973 180.282L92.4427 180.994V181.706L92.2916 182.44L91.9246 183.152L91.5577 183.864L90.8455 184.576L90.3059 185.31L89.9389 186.022L89.572 186.734L89.054 187.447H88.3418L87.6079 187.619L86.7014 188.18L85.9891 188.331L85.2769 188.526L84.5646 188.892L83.8308 189.259H83.1185L82.212 189.605L81.4998 189.777L80.8091 189.971H80.0752L79.363 190.489L78.6507 189.971L77.9385 190.317L77.2046 189.777L76.2981 189.259L75.9528 189.971L76.1254 190.684L76.8593 191.202L77.0104 191.935L76.8593 192.647L76.1254 193.187V193.921L75.9528 194.633L75.7801 195.345L76.2981 196.057L76.4924 196.791L75.7801 197.503L74.8736 197.848H74.1397H73.4275L72.7152 198.215H72.003L71.2691 197.503L70.5569 197.136L69.8446 196.942L69.1323 196.791L68.7654 197.503L68.5928 198.215L68.7654 198.927L69.1323 199.661V200.373V201.085L69.8446 201.603L70.5569 201.797L71.2691 202.337L72.003 201.797L72.7152 201.452L72.9095 202.164L73.0821 202.877L73.2548 203.589L72.5426 203.956H71.8303L71.4634 203.243H70.7511H70.0389L69.3266 203.589L69.4777 204.322L70.2115 204.668H70.9238V205.401L70.2115 205.552L69.4777 205.919L68.7654 206.459V207.193V207.905L68.9597 208.617L69.1323 209.329L69.4777 210.063L69.1323 210.775L68.3985 210.948V211.66V212.372L67.6862 212.566L66.974 212.372H66.2617L65.8948 213.084L65.1825 213.278L64.4703 213.818L64.1034 214.53L63.9307 215.242L63.7364 215.954V216.688L63.9307 217.4L64.1034 218.112L64.8156 218.673L65.5279 219.019L66.2617 219.731L66.974 219.903L67.6862 219.731L68.3985 219.385L68.9597 220.098L69.1323 220.81V221.543L68.5928 222.256V222.968L67.8805 223.68L67.1682 224.047L66.4344 224.565L65.7221 225.298L65.0099 226.011L64.643 226.723L64.1034 227.435H64.8156L65.0099 228.169L64.4703 228.881L64.1034 229.593V230.305L63.3911 230.499L62.6573 229.787L62.3119 230.499L62.6573 231.211L62.3119 231.945L61.945 232.657L60.8658 234.448L61.5781 234.254L62.1393 234.966L62.3119 235.7V236.606L63.0242 236.952L63.7364 237.319L64.2976 238.031L63.9307 238.743H63.2184L62.3119 238.398L61.5781 238.743L61.2327 238.031H60.3478H59.6355H58.9017H58.1894L57.4772 238.203L56.7649 238.398H56.0311L55.3188 238.031L55.1246 237.319L54.9519 236.606L54.6066 235.873L54.4123 235.161L54.6066 234.448V233.736L54.2396 233.003L53.5274 233.542L52.8151 233.887L52.0813 233.736L51.5417 233.003L51.0237 232.29L51.1748 231.578V230.866V230.154L51.369 229.42L51.5417 228.708L51.9086 227.996L52.4482 227.284L52.8151 226.55V225.838L52.2539 225.126V224.414V223.68L52.4482 222.968L52.8151 222.256V221.543L52.9662 220.81L53.3331 220.098L53.5274 219.385L52.9662 218.673V217.94L52.6209 217.81L52.8151 216.904V216.17L52.9662 215.458L53.7001 214.746L53.5274 214.034L52.8151 213.667L52.0813 213.3L51.369 212.782L52.0813 212.588H52.8151L53.7001 212.415L54.4123 211.875L54.0454 211.163L53.3331 210.796L52.6209 211.163L51.9086 210.796V210.084L51.7359 209.372L51.5417 208.638V207.926V207.214L51.1748 206.502L50.4625 205.962L50.2898 205.25V204.538L50.8294 203.977L51.0237 203.265V202.553L50.6568 201.819L50.2898 201.107L49.9445 200.395L49.7503 199.683V198.949V198.237V197.525V196.812V196.079V195.367L49.9445 194.654L50.0956 193.942L50.2898 193.209V192.496V191.784L51.0237 191.266L51.7359 190.533L51.5417 189.82L51.369 189.108L51.0237 188.396L50.6568 187.662L50.2898 186.95V186.238L50.6568 185.526L50.4625 184.792L50.2898 184.08V183.368L50.8294 182.656L51.369 181.922L51.5417 181.21L51.9086 180.498L51.5417 179.786L51.1748 179.052L51.0237 178.34L51.1748 177.628L51.9086 177.261L52.0813 176.549L52.4482 175.836V175.124L53.1605 174.757L53.3331 174.391V173.678L53.1605 172.966V172.254L52.9662 171.52L52.4482 170.808L52.0813 170.096L51.9086 169.729L52.0813 169.017L51.7359 168.305L51.369 167.593L51.0237 166.859L51.5417 166.147L50.8294 165.435L50.0956 164.723L49.5776 163.989L49.7503 163.277L50.4625 163.082L51.0237 162.37L50.8294 161.658V160.924L51.1748 160.212L51.5417 159.5L51.369 158.788L51.0237 158.054L50.8294 157.342L50.6568 156.63L51.0237 155.918L51.369 155.184L51.5417 154.472L51.7359 153.587L51.9086 152.875L52.2539 152.163L52.6209 151.451L52.8151 150.717L53.1605 150.005L53.7001 149.293L54.4123 148.58V147.847L55.1246 147.307L54.9519 146.595L54.4123 145.861V145.149L54.7792 144.437L54.6066 143.725L54.2396 142.991L54.0454 142.279V141.567L54.6066 140.855V140.121L54.4123 139.409L54.9519 138.33L58.3621 136.172L58.5564 132.784V132.072L58.3621 131.705L58.5564 130.993L59.2686 130.798L59.9809 130.28L60.1536 129.568L60.8658 129.374L61.2327 128.64H61.945L62.6573 129.007L63.3911 129.374L64.1034 129.568L64.8156 129.374L65.5279 129.201H66.2617L66.974 129.719V130.453L67.3409 131.165L68.0532 131.359V130.626L68.2474 129.914L68.5928 129.201L68.9597 128.489H69.6719H70.5569H71.4634H72.1972L72.9095 129.007L73.4275 129.374L74.1397 129.914L74.7009 130.626L75.0678 131.359L75.7801 131.877L76.4924 132.59L77.2046 133.323L77.9385 133.669L78.6507 134.23H79.363L80.0752 134.575L80.8091 135.287H81.4998L82.0393 136.021L82.7516 136.172L83.4854 136.733L84.1977 137.445L84.91 137.812L85.6222 138.157L86.3561 138.524H87.0683L87.7806 138.697L88.4928 138.891L89.2267 139.409L89.9389 139.97V140.682L89.4209 141.394L89.054 142.106L88.3418 142.84L88.1475 143.552L87.7806 144.437L87.2626 145.149L87.0683 145.861L86.8957 146.595V147.307L87.6079 147.135H88.3418L89.054 147.307L89.7663 147.653L90.4785 147.847H91.2124L91.9246 148.019H92.6369H93.3492L94.083 148.214L94.7953 147.653L95.5075 147.847H96.2198L96.9536 147.307L97.299 146.595L97.8386 145.861L98.5508 145.343L99.2631 144.977L99.8242 144.264V143.552L99.63 142.84L99.8242 142.106L100.537 141.696Z" fill="#E5E5E5" stroke="white" stroke-miterlimit="10"/>
<path d="M65.0099 246.102L65.7221 246.641L66.4344 247.008H67.1682H67.8805L68.5927 247.181L69.3266 247.526L70.2115 247.353L70.9238 247.181L71.636 247.008L72.3483 246.814L72.1972 246.102H71.4634L70.7511 245.929H70.0388L69.4777 245.217L68.7654 245.023L68.0532 244.85L67.3409 244.483L66.974 243.771L66.2617 243.426L65.7221 242.692L65.3768 241.98H64.6429L64.8156 241.268V240.556L64.2976 239.822L64.1034 239.477V240.189V240.901V241.98L64.2976 242.692L64.4703 243.944L64.6429 245.023V245.929L65.0099 246.102Z" fill="#E5E5E5" stroke="white" stroke-miterlimit="10"/>
<path d="M89.7663 158.572L89.4209 159.284L89.2267 159.996L89.054 160.708L88.8597 161.442L88.6871 162.154V162.866L88.3417 163.578L88.1475 164.312L87.9748 165.024V165.737L87.7806 166.449V167.182V167.895L87.6079 168.607L87.0683 169.319L87.2626 170.247V170.959L87.4352 171.671L87.6079 172.383L88.3417 172.923L89.054 173.462H89.7663L90.4785 173.268L91.2124 173.462L91.7304 174.174L92.0973 174.908L92.8096 175.253H93.5218H94.2341L94.9679 174.908L95.6802 175.059L96.3924 175.253L97.1047 175.426L97.8385 175.62H98.5508L99.2631 175.253L99.8242 174.541L100.536 174.347L101.249 173.829L101.421 173.117L101.961 172.383L102.695 171.844V171.132L102.328 170.398L101.961 169.686L102.328 168.974L102.695 168.261H103.407V167.528L102.695 166.816L102.134 166.103L101.616 165.391L101.054 164.658L100.342 164.14L99.63 163.578L98.9177 163.233L98.1839 162.694L97.4716 162.154L97.1047 161.442L96.5867 160.708L95.8744 160.903L95.1622 160.557L94.601 159.824L93.8887 159.111L93.1765 158.572L92.8096 157.838H92.0973L91.3635 158.205L90.6512 158.399L89.7663 158.572Z" fill="#E5E5E5" stroke="white" stroke-miterlimit="10"/>
<path d="M158 100.198C158 114.354 141.939 132 139 132C136.061 132 120 114.354 120 100.198C120 89.0431 127.954 80 139 80C150.046 80 158 89.0431 158 100.198Z" fill="#E55564"/>
<circle cx="139" cy="100" r="10" fill="white"/>
<path d="M166.078 108V95.04H168.686C169.55 95.04 170.265 95.1573 170.83 95.392C171.396 95.616 171.812 95.984 172.078 96.496C172.356 96.9973 172.494 97.6587 172.494 98.48C172.494 98.9813 172.441 99.44 172.334 99.856C172.228 100.261 172.057 100.608 171.822 100.896C171.588 101.173 171.278 101.376 170.894 101.504L172.734 108H170.99L169.294 101.92H167.886V108H166.078ZM167.886 100.624H168.574C169.086 100.624 169.502 100.56 169.822 100.432C170.142 100.304 170.377 100.085 170.526 99.776C170.676 99.4667 170.75 99.0347 170.75 98.48C170.75 97.7227 170.612 97.1787 170.334 96.848C170.057 96.5067 169.508 96.336 168.686 96.336H167.886V100.624ZM174.343 108V98.752H176.055V108H174.343ZM174.343 97.376V95.584H176.055V97.376H174.343ZM180.431 108.128C179.749 108.128 179.21 107.989 178.815 107.712C178.421 107.435 178.138 107.04 177.967 106.528C177.807 106.016 177.727 105.413 177.727 104.72V102.032C177.727 101.339 177.807 100.736 177.967 100.224C178.138 99.712 178.421 99.3173 178.815 99.04C179.21 98.7627 179.749 98.624 180.431 98.624C181.114 98.624 181.647 98.7627 182.031 99.04C182.426 99.3173 182.703 99.712 182.863 100.224C183.034 100.736 183.119 101.339 183.119 102.032V104.72C183.119 105.413 183.034 106.016 182.863 106.528C182.703 107.04 182.426 107.435 182.031 107.712C181.647 107.989 181.114 108.128 180.431 108.128ZM180.431 106.864C180.762 106.864 180.991 106.768 181.119 106.576C181.258 106.384 181.338 106.133 181.359 105.824C181.391 105.504 181.407 105.173 181.407 104.832V101.936C181.407 101.584 181.391 101.253 181.359 100.944C181.338 100.635 181.258 100.384 181.119 100.192C180.991 99.9893 180.762 99.888 180.431 99.888C180.101 99.888 179.866 99.9893 179.727 100.192C179.589 100.384 179.503 100.635 179.471 100.944C179.45 101.253 179.439 101.584 179.439 101.936V104.832C179.439 105.173 179.45 105.504 179.471 105.824C179.503 106.133 179.589 106.384 179.727 106.576C179.866 106.768 180.101 106.864 180.431 106.864ZM190.485 108.128C189.706 108.128 189.125 107.845 188.741 107.28C188.357 106.704 188.165 105.733 188.165 104.368V102.576C188.165 101.872 188.223 101.221 188.341 100.624C188.458 100.016 188.677 99.5307 188.997 99.168C189.327 98.8053 189.807 98.624 190.437 98.624C190.746 98.624 191.029 98.6933 191.285 98.832C191.541 98.9707 191.77 99.1413 191.973 99.344V95.04H193.685V108H191.973V107.408C191.77 107.621 191.546 107.797 191.301 107.936C191.066 108.064 190.794 108.128 190.485 108.128ZM190.917 106.784C191.077 106.784 191.247 106.757 191.429 106.704C191.61 106.64 191.791 106.549 191.973 106.432V100.368C191.823 100.261 191.658 100.171 191.477 100.096C191.295 100.011 191.098 99.968 190.885 99.968C190.49 99.968 190.223 100.16 190.085 100.544C189.946 100.917 189.877 101.371 189.877 101.904V104.512C189.877 104.939 189.898 105.328 189.941 105.68C189.994 106.021 190.095 106.293 190.245 106.496C190.394 106.688 190.618 106.784 190.917 106.784ZM197.979 108.128C197.253 108.128 196.693 107.989 196.299 107.712C195.904 107.424 195.627 107.008 195.467 106.464C195.317 105.909 195.243 105.232 195.243 104.432V102.32C195.243 101.499 195.323 100.816 195.483 100.272C195.643 99.728 195.92 99.3173 196.315 99.04C196.72 98.7627 197.275 98.624 197.979 98.624C198.757 98.624 199.328 98.784 199.691 99.104C200.064 99.424 200.309 99.888 200.427 100.496C200.544 101.093 200.603 101.813 200.603 102.656V103.408H196.955V105.264C196.955 105.637 196.987 105.941 197.051 106.176C197.125 106.411 197.237 106.587 197.387 106.704C197.547 106.811 197.749 106.864 197.995 106.864C198.251 106.864 198.443 106.805 198.571 106.688C198.709 106.56 198.8 106.384 198.843 106.16C198.896 105.925 198.923 105.653 198.923 105.344V104.784H200.587V105.136C200.587 106.064 200.389 106.795 199.995 107.328C199.6 107.861 198.928 108.128 197.979 108.128ZM196.955 102.48H198.923V101.648C198.923 101.264 198.901 100.944 198.859 100.688C198.816 100.421 198.725 100.224 198.587 100.096C198.459 99.9573 198.251 99.888 197.963 99.888C197.685 99.888 197.472 99.952 197.323 100.08C197.184 100.208 197.088 100.427 197.035 100.736C196.981 101.035 196.955 101.451 196.955 101.984V102.48ZM205.057 108.304V107.008C205.452 107.008 205.772 106.981 206.017 106.928C206.263 106.875 206.449 106.779 206.577 106.64C206.716 106.501 206.812 106.304 206.865 106.048C206.919 105.781 206.945 105.445 206.945 105.04V95.04H208.737V105.072C208.737 105.819 208.657 106.432 208.497 106.912C208.337 107.381 208.055 107.733 207.649 107.968C207.244 108.192 206.668 108.304 205.921 108.304H205.057ZM212.286 108.128C211.923 108.128 211.603 108.027 211.326 107.824C211.048 107.611 210.83 107.344 210.67 107.024C210.51 106.693 210.43 106.347 210.43 105.984C210.43 105.408 210.526 104.923 210.718 104.528C210.91 104.133 211.171 103.803 211.502 103.536C211.843 103.259 212.232 103.019 212.67 102.816C213.118 102.613 213.587 102.416 214.078 102.224V101.568C214.078 101.195 214.056 100.885 214.014 100.64C213.971 100.395 213.88 100.213 213.742 100.096C213.614 99.968 213.416 99.904 213.15 99.904C212.915 99.904 212.723 99.9573 212.574 100.064C212.435 100.171 212.334 100.325 212.27 100.528C212.206 100.72 212.174 100.949 212.174 101.216V101.68L210.478 101.616C210.499 100.592 210.734 99.84 211.182 99.36C211.63 98.8693 212.323 98.624 213.262 98.624C214.179 98.624 214.83 98.8747 215.214 99.376C215.598 99.8773 215.79 100.603 215.79 101.552V105.776C215.79 106.064 215.795 106.341 215.806 106.608C215.827 106.875 215.848 107.125 215.87 107.36C215.902 107.584 215.928 107.797 215.95 108H214.382C214.35 107.829 214.307 107.616 214.254 107.36C214.211 107.093 214.179 106.853 214.158 106.64C214.051 107.003 213.843 107.344 213.534 107.664C213.235 107.973 212.819 108.128 212.286 108.128ZM212.958 106.656C213.128 106.656 213.288 106.608 213.438 106.512C213.587 106.416 213.72 106.309 213.838 106.192C213.955 106.064 214.035 105.963 214.078 105.888V103.264C213.811 103.413 213.56 103.563 213.326 103.712C213.091 103.861 212.883 104.021 212.702 104.192C212.531 104.352 212.392 104.539 212.286 104.752C212.19 104.955 212.142 105.189 212.142 105.456C212.142 105.829 212.211 106.123 212.35 106.336C212.488 106.549 212.691 106.656 212.958 106.656ZM217.434 108V98.752H219.146V99.664C219.456 99.376 219.797 99.1307 220.17 98.928C220.544 98.7253 220.954 98.624 221.402 98.624C221.776 98.624 222.058 98.72 222.25 98.912C222.453 99.104 222.592 99.344 222.666 99.632C222.752 99.92 222.794 100.213 222.794 100.512V108H221.082V101.008C221.082 100.677 221.034 100.421 220.938 100.24C220.842 100.059 220.645 99.968 220.346 99.968C220.154 99.968 219.952 100.027 219.738 100.144C219.536 100.251 219.338 100.384 219.146 100.544V108H217.434ZM227.026 108.128C226.3 108.128 225.74 107.989 225.346 107.712C224.951 107.424 224.674 107.008 224.514 106.464C224.364 105.909 224.29 105.232 224.29 104.432V102.32C224.29 101.499 224.37 100.816 224.53 100.272C224.69 99.728 224.967 99.3173 225.362 99.04C225.767 98.7627 226.322 98.624 227.026 98.624C227.804 98.624 228.375 98.784 228.738 99.104C229.111 99.424 229.356 99.888 229.474 100.496C229.591 101.093 229.65 101.813 229.65 102.656V103.408H226.002V105.264C226.002 105.637 226.034 105.941 226.098 106.176C226.172 106.411 226.284 106.587 226.434 106.704C226.594 106.811 226.796 106.864 227.042 106.864C227.298 106.864 227.49 106.805 227.618 106.688C227.756 106.56 227.847 106.384 227.89 106.16C227.943 105.925 227.97 105.653 227.97 105.344V104.784H229.634V105.136C229.634 106.064 229.436 106.795 229.042 107.328C228.647 107.861 227.975 108.128 227.026 108.128ZM226.002 102.48H227.97V101.648C227.97 101.264 227.948 100.944 227.906 100.688C227.863 100.421 227.772 100.224 227.634 100.096C227.506 99.9573 227.298 99.888 227.01 99.888C226.732 99.888 226.519 99.952 226.37 100.08C226.231 100.208 226.135 100.427 226.082 100.736C226.028 101.035 226.002 101.451 226.002 101.984V102.48ZM231.312 108V98.752H233.024V108H231.312ZM231.312 97.376V95.584H233.024V97.376H231.312ZM234.904 108V98.752H236.616V100.064C236.958 99.4987 237.299 99.12 237.64 98.928C237.982 98.736 238.323 98.64 238.664 98.64C238.707 98.64 238.744 98.64 238.776 98.64C238.819 98.64 238.872 98.6453 238.936 98.656V100.544C238.808 100.491 238.659 100.448 238.488 100.416C238.328 100.373 238.163 100.352 237.992 100.352C237.726 100.352 237.48 100.416 237.256 100.544C237.043 100.661 236.83 100.896 236.616 101.248V108H234.904ZM242.541 108.128C241.858 108.128 241.319 107.989 240.925 107.712C240.53 107.435 240.247 107.04 240.077 106.528C239.917 106.016 239.837 105.413 239.837 104.72V102.032C239.837 101.339 239.917 100.736 240.077 100.224C240.247 99.712 240.53 99.3173 240.925 99.04C241.319 98.7627 241.858 98.624 242.541 98.624C243.223 98.624 243.757 98.7627 244.141 99.04C244.535 99.3173 244.813 99.712 244.973 100.224C245.143 100.736 245.229 101.339 245.229 102.032V104.72C245.229 105.413 245.143 106.016 244.973 106.528C244.813 107.04 244.535 107.435 244.141 107.712C243.757 107.989 243.223 108.128 242.541 108.128ZM242.541 106.864C242.871 106.864 243.101 106.768 243.229 106.576C243.367 106.384 243.447 106.133 243.469 105.824C243.501 105.504 243.517 105.173 243.517 104.832V101.936C243.517 101.584 243.501 101.253 243.469 100.944C243.447 100.635 243.367 100.384 243.229 100.192C243.101 99.9893 242.871 99.888 242.541 99.888C242.21 99.888 241.975 99.9893 241.837 100.192C241.698 100.384 241.613 100.635 241.581 100.944C241.559 101.253 241.549 101.584 241.549 101.936V104.832C241.549 105.173 241.559 105.504 241.581 105.824C241.613 106.133 241.698 106.384 241.837 106.576C241.975 106.768 242.21 106.864 242.541 106.864Z" fill="black"/>
</svg>
