<svg width="32" height="28" viewBox="0 0 32 28" fill="none" xmlns="http://www.w3.org/2000/svg">
<path fill-rule="evenodd" clip-rule="evenodd" d="M14.3793 0H25.8444C26.8946 0 27.8476 0.214261 28.7034 0.642783C29.5592 1.05183 30.2301 1.63617 30.7164 2.39583C31.2026 3.136 31.4457 3.99304 31.4457 4.96696C31.4457 6.07722 31.1345 7.1542 30.5122 7.97229C29.9092 8.7709 29.1313 9.32603 28.1783 9.63768V9.73913C29.3063 9.95339 30.2204 10.5085 30.9206 11.4045C31.6402 12.281 32 13.2257 32 14.4334C32 16.2449 31.4165 17.6376 30.2496 18.6115C29.1021 19.5659 27.6337 20.0431 25.8444 20.0431H14.3793V11.609H10.4149L10.4149 28H6.18476V11.609H0V8.01449H14.3793V0ZM24.6483 8.00556C25.4263 8.00556 26.0292 7.81078 26.4571 7.42122C26.8849 7.01217 27.0989 6.496 27.0989 5.8727C27.0989 5.13252 26.8947 4.56765 26.4862 4.17809C26.0972 3.78852 25.5527 3.59374 24.8525 3.59374H18.6386L18.6386 7.30434V12.3768L18.6386 16.4494H25.1442C25.8833 16.4494 26.4862 16.2351 26.953 15.8066C27.4198 15.3781 27.6532 14.7645 27.6532 13.9659C27.6532 13.2452 27.4198 12.7583 26.953 12.3103C26.4862 11.8623 25.8055 11.6383 24.9109 11.6383H20.0567V8.00556H24.6483Z" fill="white"/>
</svg>
